<svg xmlns="http://www.w3.org/2000/svg" width="69" height="80" viewBox="0 0 69 80"><g fill="#D45700" fill-rule="nonzero"><path d="M34.03 40.64c.01 0 1.58-.03 1.58-.98a.66.66 0 00-1.18-.4c-.26.1-.55.1-.82 0a.66.66 0 00-1.17.4c0 .95 1.57.98 1.59.98zM43.42 35.05a5 5 0 00-2.44-.8c-1-.02-1.95.42-2.58 1.2a.66.66 0 001.07.76c.38-.43.93-.66 1.5-.64a3.6 3.6 0 011.76.6.66.66 0 00.69-1.12zM44.82 31.1c-.6-.36-1.26-.6-1.94-.73-1-.18-3.48-.48-5.01.56a.66.66 0 10.73 1.09c.78-.53 2.33-.66 4.04-.35.51.09 1 .27 1.45.53.11.07.24.1.36.1a.66.66 0 00.37-1.2zM27.07 34.25a5 5 0 00-2.44.8.66.66 0 00.69 1.11 3.6 3.6 0 011.75-.6c.58-.02 1.13.22 1.51.64a.66.66 0 101.07-.76 3.22 3.22 0 00-2.58-1.19zM25.17 30.37a5.7 5.7 0 00-1.94.73.66.66 0 00.72 1.1c.45-.26.94-.44 1.46-.53 1.74-.32 3.25-.18 4.04.35a.66.66 0 00.73-1.1c-1.53-1.03-4.01-.73-5.01-.55zM35.64 42.51c-1.07.08-2.15.08-3.23 0a1.53 1.53 0 00-1.65 1.7c.38 3.56 2.41 3.95 3.27 3.95.86 0 2.88-.39 3.26-3.95a1.54 1.54 0 00-1.65-1.7zm-1.61 4.33c-1.45 0-1.85-1.73-1.96-2.78 0-.06.01-.13.06-.17.04-.05.1-.07.15-.07h.03c1.14.08 2.3.08 3.44 0 .06 0 .12.02.17.07.05.04.07.11.06.18-.1 1.04-.51 2.77-1.95 2.77z"></path><path d="M60.32 54.43c-2.15-2.11-3.41-3.52-2.37-5.7 2.58-5.36 1.92-10-1.84-13.07-2.15-1.76-3.05-3.31-4.2-5.27a44.9 44.9 0 00-2.35-3.69c.17-.3.26-.63.26-.97l-.07-9.16-.01-.16 1.9-.53c.48 1.85.7 3.76.67 5.67a1.84 1.84 0 00-.94 2.64 9.42 9.42 0 00-.66 3.87c.04.54.43 1 .95 1.14a5.66 5.66 0 002.73-.02c.53-.15.9-.62.92-1.16 0-1.32-.25-2.62-.72-3.84.16-.28.24-.6.24-.91-.01-.77-.49-1.46-1.2-1.73.03-2.03-.21-4.04-.72-6l.6-.17a1.9 1.9 0 001.56-1.78c-.06-.88-.71-1.6-1.58-1.76L35.08 7.07a4.44 4.44 0 00-2.26.02l-18.34 5.04c-.87.16-1.5.9-1.55 1.78.06.88.7 1.6 1.58 1.76l3.75.97-.08 9.08c0 .35.1.69.27.99a44.8 44.8 0 00-2.35 3.68c-1.15 1.96-2.06 3.51-4.2 5.27-3.76 3.07-4.42 7.71-1.85 13.06 1.05 2.19-.22 3.6-2.37 5.71a13.31 13.31 0 00-3.13 3.97 9.43 9.43 0 00-.06 7.71 8.7 8.7 0 005.1 4.47c-.88 2.53 1.1 3.94 2.73 4.8 1 .53 2.04 1 3.1 1.4h.01A52.88 52.88 0 0034.03 80a52.82 52.82 0 0018.62-3.22l.05-.02c1.03-.4 2.04-.86 3.03-1.37.95-.5 3.72-1.96 2.73-4.83a8.68 8.68 0 005.05-4.46 9.44 9.44 0 00-.06-7.7c-.68-1.55-1.92-2.78-3.13-3.97zm-7.73-30.77a.54.54 0 01.38-.93.54.54 0 010 1.09.54.54 0 01-.38-.16zm1.4 4.26c-.64.16-1.31.17-1.96.03a7.47 7.47 0 01.43-2.9c.17.05.34.08.51.08H53c.17 0 .34-.03.5-.08.33.92.5 1.9.5 2.87zm-5.3 11.43a3.76 3.76 0 012.03-1.32.66.66 0 00-.23-1.3c-.5.11-.98.3-1.42.57a46 46 0 00.38-2.55c.46-.04.93.03 1.35.2 1.66.68 1.83 2.74 1.26 4.49a4.46 4.46 0 01-2.34 2.62 2.8 2.8 0 01-1.6.24l.58-2.95zm-.5-5.16a108.81 108.81 0 01-1.48 8.41c-1.46 6-5.12 8.81-7.92 10.1l-.17.07-.54.23c-1.29.57-2.67.9-4.08.97-1.39-.08-2.75-.4-4.03-.96l-.08-.04-.61-.26c-2.79-1.28-6.4-4.04-7.87-9.92 0-.11-.02-.22-.06-.32l-.04-.05a105.28 105.28 0 01-1.45-8.23c.12-.67.31-1.33.57-1.96.63-1.45.93-3.03.87-4.6 2.25.01 4.5.22 6.72.62 1.97.36 3.97.56 5.98.62a40.7 40.7 0 006-.62c2.23-.4 4.48-.61 6.75-.63-.06 1.58.23 3.16.86 4.61.26.63.46 1.29.58 1.96zM29.63 54.28c1.4.6 2.9.94 4.42 1 1.5-.07 2.99-.4 4.37-1 .14 2.42.8 3.81 2.13 4.45l.23.1c-2.4 1.87-4.56 4.02-6.46 6.39a.32.32 0 01-.52 0 39.57 39.57 0 00-6.51-6.4l.21-.1c1.32-.63 2-2.02 2.13-4.44zM18.6 34.75c.08.7.22 1.6.38 2.52a4.8 4.8 0 00-1.38-.54.66.66 0 10-.23 1.3c.77.2 1.46.63 1.97 1.25.22 1.19.45 2.32.6 3.03-.55.07-1.1-.02-1.6-.26a4.46 4.46 0 01-2.3-2.61c-.57-1.75-.4-3.81 1.26-4.49.41-.17.86-.24 1.3-.2zM34 14.57h.01c4.49-.03 8.97.26 13.42.86.57.08 1 .57 1 1.15l.08 9.16a.6.6 0 01-.2.46.63.63 0 01-.48.16l-.28-.02c-2.6-.07-5.2.13-7.74.61a39.8 39.8 0 01-5.8.6 39.57 39.57 0 01-5.8-.6 43.7 43.7 0 00-6.47-.65c-.41 0-.82.01-1.23.04l-.33.02a.67.67 0 01-.48-.16.6.6 0 01-.2-.46l.07-9.16a1.2 1.2 0 011.02-1.15c4.44-.6 8.93-.89 13.41-.86zm-19.76-.67c0-.21.23-.4.6-.5l18.33-5.04a3.13 3.13 0 011.58-.02l18.41 4.76c.36.1.6.3.6.5s-.23.4-.59.5l-3.87 1.07c-.4-.57-1.01-.95-1.7-1.04-4.5-.62-9.05-.9-13.6-.87-4.54-.03-9.08.26-13.59.87-.77.1-1.44.56-1.82 1.23l-3.75-.97c-.36-.09-.6-.28-.6-.5zM5.7 65.56a8.12 8.12 0 01.07-6.63 12.39 12.39 0 012.85-3.56c2.03-2 4.14-4.07 2.63-7.22-1.62-3.36-2.67-8.08 1.49-11.48a18.06 18.06 0 004.5-5.61c.6-1.03 1.3-2.19 2.23-3.5.17.05.34.09.52.1a9.23 9.23 0 01-.78 4.12c-.21.54-.39 1.1-.53 1.65a4.11 4.11 0 00-1.87.31c-2.11.85-2.92 3.31-2.01 6.1a5.82 5.82 0 003 3.4 4.33 4.33 0 002.47.35c1.6 5.8 5.17 8.7 8.08 10.12-.07 2.85-.83 3.55-1.4 3.83l-1.16.52c-.02 0-.03 0-.05.02l-1.34.52a23.3 23.3 0 00-4.62 2.18l-1.22.81c-2.51 1.7-6.09 4.33-8.27 7.6-.05.06-.08.13-.12.2-1.95-.61-3.57-2-4.47-3.83zm5.36 4.91c.1-.19.2-.37.32-.55a24.69 24.69 0 015.83-5.75c-.3.78-.55 1.58-.77 2.38-1.4.7-2.6 1.7-3.54 2.96a.66.66 0 101.09.74A8.7 8.7 0 0116 68.3c-.19.84-.35 1.72-.5 2.63a5 5 0 00-2.03 2.1.66.66 0 101.15.62c.17-.32.38-.61.63-.88-.1.88-.18 1.73-.22 2.44-.75-.31-1.45-.64-2.1-.98-2.5-1.32-2.58-2.41-1.9-3.76zm5.29 5.24a42.89 42.89 0 011.28-8.5c.37-1.62.98-3.17 1.79-4.6l1.08-.73a22.25 22.25 0 014.37-2.05l1.05-.41c1.07.82 4.96 3.93 7.08 6.92a1.3 1.3 0 002.11 0c2.12-2.99 6-6.09 7.07-6.91l1.06.41c1.51.52 2.96 1.2 4.32 2.04l.4.27.76.5c.8 1.43 1.39 2.96 1.76 4.56a40.6 40.6 0 011.29 8.5 51.77 51.77 0 01-17.73 2.97 51.85 51.85 0 01-17.7-2.97zm38.77-1.49c-.62.34-1.32.66-2.06.97a39.1 39.1 0 00-.21-2.43c.24.27.44.57.62.89a.66.66 0 101.15-.62 4.88 4.88 0 00-2.03-2.1c-.14-.91-.3-1.78-.49-2.62.77.54 1.46 1.2 2.03 1.95a.66.66 0 001.08-.76 9.96 9.96 0 00-3.54-2.95c-.24-.87-.5-1.65-.77-2.36a24.87 24.87 0 015.78 5.73c.1.14.17.27.25.41 0 .05.02.1.03.14.04.07.08.13.14.18.6 1.26.42 2.32-1.98 3.57zm7.21-8.67a7.44 7.44 0 01-4.44 3.83l-.1-.19c-2.16-3.23-5.68-5.83-8.16-7.52a105.04 105.04 0 00-.94-.62l-.4-.28a23.28 23.28 0 00-4.58-2.16 68.8 68.8 0 01-2.58-1.07c-.58-.27-1.34-.98-1.4-3.83 2.9-1.43 6.47-4.34 8.07-10.13a4.3 4.3 0 002.46-.32 5.82 5.82 0 003.06-3.41c.91-2.8.1-5.25-2-6.1a4.29 4.29 0 00-1.93-.32c-.14-.56-.32-1.1-.52-1.65a9.24 9.24 0 01-.79-4.12c.17-.01.33-.05.48-.1a44.56 44.56 0 012.22 3.49 18.1 18.1 0 004.5 5.62c4.17 3.4 3.12 8.12 1.5 11.49-1.51 3.14.6 5.2 2.63 7.21 1.12 1.1 2.27 2.24 2.84 3.56.97 2.1 1 4.5.08 6.62z"></path><path d="M9.6 24.39a2.22 2.22 0 104.43 0 2.22 2.22 0 00-4.43 0zm2.21-.9a.9.9 0 110 1.8.9.9 0 010-1.8zM55.78 9.46a2.26 2.26 0 100-4.52 2.26 2.26 0 000 4.52zm0-3.2a.95.95 0 110 1.9.95.95 0 010-1.91zM8.85 12.52a2.63 2.63 0 100-5.26 2.63 2.63 0 000 5.26zm0-3.94a1.31 1.31 0 110 2.63 1.31 1.31 0 010-2.63zM67.37 41.71l-.42-.22-.23-.42a1.45 1.45 0 00-2.55.01l-.23.42-.41.23a1.46 1.46 0 000 2.55l.43.23.23.42a1.46 1.46 0 002.55-.02l.23-.42.41-.23a1.46 1.46 0 00-.01-2.55zm-.62 1.4l-.72.4a.15.15 0 00-.06.05l-.39.73a.14.14 0 01-.24 0l-.4-.72a.14.14 0 00-.05-.06l-.73-.39a.14.14 0 010-.24l.72-.4a.14.14 0 00.06-.05l.39-.72a.14.14 0 01.24 0l.4.71c0 .03.03.05.05.06l.73.39a.14.14 0 010 .24zM4.97 40.28l.6-1.08 1.08-.6a1.45 1.45 0 000-2.54l-1.08-.59-.6-1.08a1.45 1.45 0 00-2.54 0l-.59 1.08-1.08.6a1.45 1.45 0 000 2.54l1.08.59.6 1.08a1.45 1.45 0 002.53 0zm-1.5-.57l-.72-1.32a.25.25 0 00-.1-.1l-1.32-.73a.26.26 0 010-.45l1.32-.72a.25.25 0 00.1-.1l.73-1.33a.26.26 0 01.45 0l.72 1.33c.02.04.06.07.1.1l1.33.72a.26.26 0 010 .45l-1.33.73a.25.25 0 00-.1.1l-.72 1.32a.26.26 0 01-.45 0zM60.68 26.72l.66.36.36.67a1.5 1.5 0 002.63 0l.37-.67.66-.36a1.5 1.5 0 000-2.63l-.66-.36-.37-.67a1.5 1.5 0 00-2.63 0l-.36.67-.66.36a1.5 1.5 0 000 2.63zm.63-1.48l.95-.52a.18.18 0 00.07-.07l.53-.96a.18.18 0 01.32 0l.52.96.08.07.95.52a.19.19 0 010 .33l-.95.52a.18.18 0 00-.08.07l-.52.96a.18.18 0 01-.32 0l-.53-.96a.18.18 0 00-.07-.07l-.95-.52a.19.19 0 010-.33zM26.98 4.08l.48.26.26.48a1.47 1.47 0 002.57 0l.27-.48.48-.26a1.47 1.47 0 000-2.57l-.48-.27-.27-.48a1.47 1.47 0 00-2.57 0l-.26.48-.48.27a1.47 1.47 0 000 2.57zm.63-1.42l.78-.42a.15.15 0 00.06-.07l.42-.78a.15.15 0 01.26 0l.43.78.06.07.78.42a.15.15 0 010 .27l-.78.43a.15.15 0 00-.06.06l-.42.78a.15.15 0 01-.27 0l-.42-.79a.15.15 0 00-.06-.06l-.78-.42a.15.15 0 010-.27z"></path></g></svg>