<svg xmlns="http://www.w3.org/2000/svg" width="73" height="78" viewBox="0 0 73 78"><g fill="#D45700" fill-rule="nonzero"><path d="M62.08 77.2H10.05c-2 0-3.64-1.63-3.64-3.64V38.2a.47.47 0 00-.47-.48H4.46a4.46 4.46 0 01-3.17-7.6L32.01 1.54a6.13 6.13 0 018.1-.02l30.7 28.58a4.46 4.46 0 01-3.13 7.63H66.2a.47.47 0 00-.47.48v35.35a3.64 3.64 0 01-3.65 3.64zm-26-74.86c-.92 0-1.81.33-2.5.94L2.92 31.82a2.12 2.12 0 001.54 3.57h1.48a2.82 2.82 0 012.81 2.82v35.35c0 .71.59 1.3 1.3 1.3h52.03c.72 0 1.3-.59 1.3-1.3V38.2a2.82 2.82 0 012.82-2.82h1.47a2.12 2.12 0 001.51-3.6L38.54 3.25a3.7 3.7 0 00-2.46-.92z"></path><path d="M38.84 33.58a7.46 7.46 0 110-14.91 7.46 7.46 0 010 14.9zm0-12.57a5.11 5.11 0 100 10.23 5.11 5.11 0 000-10.23zM56.29 66.98l-4.36-11.36H54a1.17 1.17 0 100-2.34h-6.36c.61-.9.94-1.94.94-3.02v-1.83a6.6 6.6 0 001.69-4.47 10.07 10.07 0 00-6.82-9.17 8.13 8.13 0 00-10.75 6.05H21.41a2.73 2.73 0 00-2.67 3.33l1.48 6.5a2.72 2.72 0 002.67 2.13h11.17a2.73 2.73 0 002.67-3.35l-1.49-6.5c-.07-.31-.2-.62-.38-.9a5.8 5.8 0 017.81-5.04 7.78 7.78 0 015.24 6.95c0 1.16-.58 3.43-2.81 3.75l-4.58.75a.83.83 0 01-.96-.66.84.84 0 01.54-.96l4.93-1.77a1.17 1.17 0 10-.8-2.2l-4.93 1.76a3.18 3.18 0 001.6 6.14s5.07-.85 5.32-.92v.4a3.03 3.03 0 01-3.03 3.03 1.17 1.17 0 00-1.14 1.4l.14.42c.92 2.23 2.5 6.12 3.51 8.53a2.07 2.07 0 01-3.83 1.59l-4.53-9.6h1.96a1.17 1.17 0 100-2.34H19.27a1.17 1.17 0 100 2.35h2.76l-4.36 11.35a1.17 1.17 0 102.19.84l4.68-12.2h4.24l-2.57 7.34a4.42 4.42 0 008.35 2.92l2.15-6.1 3.03 6.4a4.41 4.41 0 008.13-3.46l-2.93-7.1h4.48l4.68 12.2a1.17 1.17 0 002.18-.84zM34.37 50.3a.39.39 0 01-.3.14H22.9a.4.4 0 01-.38-.3l-1.49-6.5a.4.4 0 01.38-.47h11.17a.4.4 0 01.38.3l1.49 6.5c.03.11 0 .23-.08.33zM32.35 65.1a2.08 2.08 0 01-3.92-1.37l2.83-8.1h3.49l.54 1.14-2.94 8.33z"></path><circle cx="27.57" cy="47.03" r="1.18"></circle></g></svg>