<?xml version="1.0" encoding="UTF-8"?>
<svg id="Layer_1" data-name="Layer 1" xmlns="http://www.w3.org/2000/svg" viewBox="0 0 1000 1000">
  <defs>
    <style>
      .cls-1 {
        fill: #f7776a;
      }
    </style>
  </defs>
  <path class="cls-1" d="M664.32,336.26c-22.65-25.96-52.1-44.04-84.36-52.69-19.29-5.2-39.58-7.03-59.99-5.2-2.07,.19-4.15,.43-6.22,.69l-8.7,1.12-.91,.12-.45,.05-3.89,9.37c-2.79,6.75-5.13,13.57-7.03,20.46,7.13-.14,14.76,0,22.89,.5,4.74,.26,9.66,.67,14.73,1.19,2.29,.24,4.63,.5,6.99,.81,16.24,.21,32.14,3.34,47.04,9.08,.02,0,.07,.02,.1,.02,20.29,7.84,38.67,20.58,53.46,37.48,31.97,36.62,41.84,86.36,26.78,131.97-41.56,2.12-81.88-14.81-109.46-46.42-21.22-24.3-32.69-54.36-33.62-85.19-.1-2.69-.1-5.39,0-8.11v-.17c.14-4.72,.52-9.47,1.19-14.19-.74-.05-1.45-.1-2.19-.14-10.18-.6-21.32-.72-33.05,0-.55,4.77-.88,9.54-1,14.31v.17c-.05,2.72-.05,5.44,0,8.13,.57,24.61,6.51,48.85,17.52,71.12,6.51,13.16,14.81,25.63,24.8,37.08,32.74,37.5,79.71,58.56,128.8,58.56,7.22,0,14.5-.45,21.77-1.38l10.06-1.26,3.89-9.37c8.87-21.41,13.21-43.78,13.21-65.93,0-40.51-14.5-80.28-42.34-112.18Z"/>
  <path class="cls-1" d="M520.67,337.02c-10.18-.6-21.32-.72-33.05,0-.74,.02-1.45,.07-2.19,.14,.64,4.72,1.05,9.44,1.19,14.16v.17c.1,2.72,.1,5.44,0,8.13-.93,30.83-12.4,60.89-33.62,85.19-27.59,31.62-67.93,48.54-109.46,46.42-4.63-14.04-6.91-28.44-6.91-42.75,0-32.21,11.54-63.85,33.69-89.22,14.78-16.93,33.19-29.64,53.48-37.48,0,0,.1-.05,.31-.12,.07-.02,.17-.07,.24-.1,2.79-1.05,5.6-2.03,8.46-2.93,1.24-.36,2.46-.74,3.7-1.07,.14-.02,.29-.07,.45-.12,8.56-2.31,21.17-4.96,37.48-6.34,5.67-.5,11.78-.81,18.33-.93,7.13-.14,14.76,0,22.89,.5-1.93-7.06-4.32-14.07-7.18-20.96l-3.89-9.37-.45-.05-.76-.12-8.85-1.12c-2.36-.31-4.74-.55-7.11-.74-4.89-.43-9.8-.64-14.66-.64-15.31,0-30.4,2.05-44.92,6.01-32.07,8.7-61.35,26.75-83.88,52.57-43.06,49.33-54.22,117.57-29.14,178.11l3.89,9.37,10.06,1.26c7.27,.93,14.54,1.38,21.77,1.38,49.09,0,96.06-21.05,128.82-58.56,9.99-11.44,18.26-23.91,24.77-37.08,11.02-22.27,16.95-46.54,17.52-71.12,.05-2.69,.05-5.41,0-8.11v-.17c-.12-4.79-.45-9.56-1-14.33Z"/>
  <path class="cls-1" d="M503.86,100c-59.34,0-107.6,48.26-107.6,107.6,0,29.68,12.09,56.6,31.59,76.08,12.78,12.76,28.75,22.34,46.59,27.42,5.67-.5,11.78-.81,18.33-.93,7.13-.14,14.76,0,22.89,.5,4.74,.26,9.66,.67,14.73,1.19,19.05-4.84,36.1-14.81,49.57-28.3,19.43-19.48,31.47-46.35,31.47-75.96,0-59.34-48.26-107.6-107.58-107.6Zm1.19,180.18c-.41,.02-.79,.02-1.19,.02-.17,0-.31,0-.48-.02-5.48-.02-10.82-.67-15.95-1.86-32.16-7.46-56.2-36.34-56.2-70.72,0-40.06,32.57-72.62,72.63-72.62s72.6,32.57,72.6,72.62c0,34.5-24.18,63.45-56.48,70.77-4.82,1.12-9.8,1.74-14.93,1.81Z"/>
  <path class="cls-1" d="M432.81,318.64c-2.86,.91-5.67,1.88-8.46,2.93,1.14-.48,3.98-1.57,8.46-2.93Z"/>
  <path class="cls-1" d="M822.08,500.39l-3.88-9.37-10.06-1.28c-95.79-12.18-190.83,23.91-254.25,96.56-23.62,27.06-41.8,58.02-53.89,91.31-12.1-33.29-30.27-64.25-53.89-91.31-63.42-72.65-158.46-108.73-254.25-96.56l-10.06,1.28-3.88,9.37c-20.31,48.97-26.76,102.6-18.67,155.09,8.32,53.96,31.78,104.32,67.85,145.63,52.68,60.35,127.19,95.45,205.82,98.63l-.1,.26h137.03l-.14-.37c77.66-3.84,151.11-38.84,203.2-98.52,36.06-41.31,59.53-91.68,67.85-145.63,8.1-52.49,1.64-106.12-18.67-155.09ZM253.45,778.11c-61.65-70.62-79.24-167.38-46.97-254.77,80.71-7.01,159.8,24.68,213.28,85.95,61.65,70.62,79.24,167.38,46.97,254.77-80.7,6.99-159.8-24.68-213.28-85.95Zm493.11,0c-53.48,61.27-132.57,92.94-213.28,85.95-32.27-87.39-14.68-184.14,46.97-254.77,53.48-61.27,132.57-92.94,213.28-85.95,32.27,87.39,14.68,184.14-46.97,254.77Z"/>
</svg>