<?xml version="1.0" encoding="UTF-8"?> <svg xmlns="http://www.w3.org/2000/svg" id="Layer_1" data-name="Layer 1" viewBox="0 0 1905.97 302.02"><defs><style> .cls-1 { fill: #f7776a; } </style></defs><g><path class="cls-1" d="M391.3,108.51c2.81,5.62,4.31,11.79,4.31,18.35v89.31h-23.4V124.61c-1.12-8.24-7.68-14.79-15.91-15.91h-68.71v-23.4h66.47c6.55,0,12.73,1.5,18.35,4.31,8.24,4.12,14.98,10.86,18.91,19.1v-.19Z"></path><path class="cls-1" d="M542.4,108.88c1.87,4.68,2.99,9.74,2.99,15.17v53.74c0,11.23-4.68,21.34-12.36,28.46-2.62,2.43-5.43,4.49-8.61,6.18-5.24,2.81-11.23,4.31-17.6,4.31h-81.45v-23.4h81.45c8.43,0,15.35-6.93,15.35-15.35v-18.35c-4.49,1.87-9.55,3-14.6,3h-55.23c-10.67-.19-20.22-4.68-27.15-11.8-6.74-6.93-10.86-16.48-10.86-26.96,0-21.34,17.22-38.57,38.57-38.57h53.73c16.1,0,29.77,9.74,35.57,23.59h.19Zm-104.66,15.17c0,8.24,6.55,14.98,14.6,15.35h55.23c8.05-.37,14.6-7.12,14.6-15.35s-6.93-15.35-15.35-15.35h-53.73c-8.43,0-15.35,6.93-15.35,15.35Z"></path><path class="cls-1" d="M609.81,112.25c0,15.17-12.17,25.09-25.09,25.09-14.6,0-24.53-11.05-24.53-24.15,0-14.42,11.05-25.28,25.09-25.28,15.35,0,24.53,11.61,24.53,24.34Zm-39.51,.94c0,8.61,6.18,15.35,14.6,15.35s14.79-6.93,14.79-16.1c0-6.93-4.12-15.73-14.98-15.73-9.55,0-14.42,8.42-14.42,16.48Z"></path><path class="cls-1" d="M759.89,193.23v23.4h-66.47c-6.55,0-12.73-1.5-18.35-4.31-8.24-4.12-14.98-10.86-18.91-19.1-2.81-5.62-4.31-11.79-4.31-18.35V85.57h23.4v91.55c1.12,8.24,7.68,14.79,15.91,15.92l68.71,.19Z"></path><path class="cls-1" d="M890.77,150.91c0,36.14-29.4,65.53-65.53,65.53s-65.53-29.39-65.53-65.53,29.39-65.53,65.53-65.53,65.53,29.4,65.53,65.53Zm-23.4,0c0-23.22-18.91-42.13-42.13-42.13s-42.13,18.91-42.13,42.13,18.91,42.13,42.13,42.13,42.13-18.91,42.13-42.13Z"></path><path class="cls-1" d="M1036.06,85.57V216.63l-23.4-17.97-84.25-64.97v82.94h-23.4V85.95l23.4,17.97,84.25,64.97V85.38l23.4,.19Z"></path><path class="cls-1" d="M1078.2,150.91c0,23.22,18.91,42.13,42.13,42.13h42.13v-25.09h-42.13v-23.4h65.53v71.9h-65.53c-36.14,0-65.53-29.39-65.53-65.53s29.39-65.53,65.53-65.53h65.53v23.4h-65.53c-23.22,0-42.13,18.91-42.13,42.13Z"></path><path class="cls-1" d="M1204.58,216.44V85.38h23.4V216.44h-23.4Z"></path><path class="cls-1" d="M1377.59,85.57v23.4h-53.74v107.66h-23.4V108.97h-53.73v-23.4h130.87Z"></path><path class="cls-1" d="M1527.56,85.38v65.53c0,36.14-29.39,65.53-65.53,65.53s-65.53-29.39-65.53-65.53V85.38h23.4v65.53c0,23.22,18.91,42.13,42.13,42.13s42.13-18.91,42.13-42.13V85.38h23.4Z"></path><path class="cls-1" d="M1611.64,85.57c36.13,0,65.53,29.21,65.53,65.34,0,16.1-5.8,30.89-15.54,42.31-1.12,1.31-2.43,2.62-3.75,3.93-11.79,11.98-28.08,19.29-46.06,19.29h-65.53V85.38h65.53l-.19,.19Zm42.13,65.53c0-23.22-18.91-42.13-42.13-42.13h-42.13v84.25h42.13c23.22,0,42.13-18.91,42.13-42.13Z"></path><path class="cls-1" d="M1719.49,120.77v12.17h84.25v23.4h-84.25v24.72c0,6.55,5.43,11.98,11.98,11.98h95.67v23.4h-95.67c-19.47,0-35.2-15.91-35.2-35.39v-60.29c0-19.47,15.73-35.39,35.2-35.39h95.67v23.4h-95.67c-6.55,0-11.98,5.43-11.98,11.98Z"></path></g><g><path class="cls-1" d="M191.96,89.19c-8.55-9.8-19.67-16.63-31.85-19.89-7.28-1.96-14.94-2.66-22.65-1.96-.78,.07-1.57,.16-2.35,.26l-3.29,.42-.34,.04-.17,.02-1.47,3.54c-1.05,2.55-1.94,5.12-2.66,7.72,2.69-.05,5.57,0,8.64,.19,1.79,.1,3.65,.25,5.56,.45,.86,.09,1.75,.19,2.64,.31,6.13,.08,12.13,1.26,17.76,3.43,0,0,.03,0,.04,0,7.66,2.96,14.6,7.77,20.18,14.15,12.07,13.83,15.8,32.6,10.11,49.82-15.69,.8-30.91-5.59-41.32-17.53-8.01-9.17-12.34-20.52-12.69-32.16-.04-1.02-.04-2.03,0-3.06v-.06c.05-1.78,.2-3.57,.45-5.36-.28-.02-.55-.04-.83-.05-3.84-.23-8.05-.27-12.48,0-.21,1.8-.33,3.6-.38,5.4v.06c-.02,1.03-.02,2.05,0,3.07,.22,9.29,2.46,18.44,6.62,26.85,2.46,4.97,5.59,9.68,9.36,14,12.36,14.16,30.09,22.11,48.62,22.11,2.73,0,5.47-.17,8.22-.52l3.8-.48,1.47-3.54c3.35-8.08,4.99-16.53,4.99-24.89,0-15.29-5.47-30.31-15.99-42.35Z"></path><path class="cls-1" d="M137.73,89.48c-3.84-.23-8.05-.27-12.48,0-.28,0-.55,.03-.83,.05,.24,1.78,.4,3.56,.45,5.35v.06c.04,1.03,.04,2.05,0,3.07-.35,11.64-4.68,22.99-12.69,32.16-10.41,11.94-25.64,18.33-41.32,17.53-1.75-5.3-2.61-10.74-2.61-16.14,0-12.16,4.36-24.11,12.72-33.68,5.58-6.39,12.53-11.19,20.19-14.15,0,0,.04-.02,.12-.04,.03,0,.06-.03,.09-.04,1.05-.4,2.12-.77,3.2-1.11,.47-.14,.93-.28,1.4-.41,.05,0,.11-.03,.17-.04,3.23-.87,7.99-1.87,14.15-2.39,2.14-.19,4.45-.31,6.92-.35,2.69-.05,5.57,0,8.64,.19-.73-2.66-1.63-5.31-2.71-7.91l-1.47-3.54-.17-.02-.29-.04-3.34-.42c-.89-.12-1.79-.21-2.68-.28-1.85-.16-3.7-.24-5.54-.24-5.78,0-11.48,.77-16.96,2.27-12.11,3.29-23.16,10.1-31.67,19.85-16.26,18.62-20.47,44.38-11,67.24l1.47,3.54,3.8,.48c2.75,.35,5.49,.52,8.22,.52,18.53,0,36.27-7.95,48.63-22.11,3.77-4.32,6.89-9.03,9.35-14,4.16-8.41,6.4-17.57,6.62-26.85,.02-1.02,.02-2.04,0-3.06v-.06c-.05-1.81-.17-3.61-.38-5.41Z"></path><path class="cls-1" d="M131.38,0c-22.4,0-40.62,18.22-40.62,40.62,0,11.21,4.56,21.37,11.93,28.72,4.82,4.82,10.86,8.43,17.59,10.35,2.14-.19,4.45-.31,6.92-.35,2.69-.05,5.57,0,8.64,.19,1.79,.1,3.65,.25,5.56,.45,7.19-1.83,13.63-5.59,18.71-10.68,7.34-7.35,11.88-17.5,11.88-28.68,0-22.4-18.22-40.62-40.61-40.62Zm.45,68.02c-.15,0-.3,0-.45,0-.06,0-.12,0-.18,0-2.07,0-4.09-.25-6.02-.7-12.14-2.82-21.22-13.72-21.22-26.7,0-15.12,12.3-27.42,27.42-27.42s27.41,12.3,27.41,27.42c0,13.02-9.13,23.95-21.32,26.72-1.82,.42-3.7,.66-5.63,.68Z"></path><path class="cls-1" d="M104.56,82.54c-1.08,.34-2.14,.71-3.2,1.11,.43-.18,1.5-.59,3.2-1.11Z"></path><path class="cls-1" d="M251.52,151.16l-1.47-3.54-3.8-.48c-36.16-4.6-72.04,9.03-95.98,36.45-8.92,10.22-15.78,21.9-20.35,34.47-4.57-12.57-11.43-24.26-20.35-34.47-23.94-27.43-59.82-41.05-95.98-36.45l-3.8,.48-1.47,3.54C.66,169.64-1.78,189.89,1.28,209.71c3.14,20.37,12,39.38,25.61,54.98,19.89,22.78,48.02,36.03,77.7,37.23l-.04,.1h51.73l-.05-.14c29.32-1.45,57.05-14.66,76.71-37.19,13.61-15.6,22.47-34.61,25.61-54.98,3.06-19.82,.62-40.06-7.05-58.55ZM36.84,256c-23.27-26.66-29.91-63.19-17.73-96.18,30.47-2.65,60.33,9.32,80.52,32.45,23.27,26.66,29.91,63.19,17.73,96.18-30.47,2.64-60.33-9.32-80.52-32.45Zm186.16,0c-20.19,23.13-50.05,35.09-80.52,32.45-12.18-32.99-5.54-69.52,17.73-96.18,20.19-23.13,50.05-35.09,80.52-32.45,12.18,32.99,5.54,69.52-17.73,96.18Z"></path></g><g><path class="cls-1" d="M1853.1,7.42v4.78h-12.26V52.41h-5.87V12.19h-12.33V7.42h30.47Z"></path><path class="cls-1" d="M1905.97,7.74V52.41h-5.87V19.1l-14.85,33.31h-4.13l-14.91-33.37V52.41h-5.87V7.74h6.33l16.52,36.92,16.53-36.92h6.26Z"></path></g></svg> 